<mxfile host="app.diagrams.net" modified="2023-02-26T03:02:12.493Z" agent="5.0 (Windows NT 10.0; Win64; x64) AppleWebKit/537.36 (KHTML, like Gecko) Chrome/110.0.0.0 Safari/537.36 Edg/110.0.1587.56" etag="1nHOV271SFWTAuY7P5R2" version="20.8.23" type="github">
  <diagram name="第 1 页" id="WYo_xBD89-6Ndxn9BM7D">
    <mxGraphModel dx="1434" dy="796" grid="1" gridSize="10" guides="1" tooltips="1" connect="1" arrows="1" fold="1" page="1" pageScale="1" pageWidth="827" pageHeight="1169" math="0" shadow="0">
      <root>
        <mxCell id="0" />
        <mxCell id="1" parent="0" />
        <mxCell id="4UY7N5YJQX02EFW7F6GH-1" style="edgeStyle=orthogonalEdgeStyle;rounded=0;orthogonalLoop=1;jettySize=auto;html=1;exitX=1;exitY=0.5;exitDx=0;exitDy=0;entryX=0;entryY=0.5;entryDx=0;entryDy=0;fontSize=17;" edge="1" parent="1" source="4UY7N5YJQX02EFW7F6GH-2" target="4UY7N5YJQX02EFW7F6GH-4">
          <mxGeometry relative="1" as="geometry" />
        </mxCell>
        <mxCell id="4UY7N5YJQX02EFW7F6GH-2" value="↑w0" style="ellipse;whiteSpace=wrap;html=1;fontSize=17;" vertex="1" parent="1">
          <mxGeometry x="109" y="307.5" width="80" height="50" as="geometry" />
        </mxCell>
        <mxCell id="4UY7N5YJQX02EFW7F6GH-3" style="edgeStyle=orthogonalEdgeStyle;rounded=0;orthogonalLoop=1;jettySize=auto;html=1;exitX=1;exitY=0.5;exitDx=0;exitDy=0;entryX=0;entryY=0.5;entryDx=0;entryDy=0;fontSize=17;" edge="1" parent="1" source="4UY7N5YJQX02EFW7F6GH-4" target="4UY7N5YJQX02EFW7F6GH-6">
          <mxGeometry relative="1" as="geometry" />
        </mxCell>
        <mxCell id="4UY7N5YJQX02EFW7F6GH-4" value="&lt;span style=&quot;font-family: &amp;quot;Times New Roman&amp;quot;;&quot;&gt;↑r0&lt;/span&gt;" style="ellipse;whiteSpace=wrap;html=1;fontSize=17;" vertex="1" parent="1">
          <mxGeometry x="254" y="307.5" width="80" height="50" as="geometry" />
        </mxCell>
        <mxCell id="4UY7N5YJQX02EFW7F6GH-5" style="edgeStyle=orthogonalEdgeStyle;rounded=0;orthogonalLoop=1;jettySize=auto;html=1;exitX=1;exitY=0.5;exitDx=0;exitDy=0;entryX=0;entryY=0.5;entryDx=0;entryDy=0;fontSize=17;" edge="1" parent="1" source="4UY7N5YJQX02EFW7F6GH-6" target="4UY7N5YJQX02EFW7F6GH-8">
          <mxGeometry relative="1" as="geometry" />
        </mxCell>
        <mxCell id="4UY7N5YJQX02EFW7F6GH-6" value="&lt;span style=&quot;font-family: &amp;quot;Times New Roman&amp;quot;;&quot;&gt;↑w1&lt;/span&gt;" style="ellipse;whiteSpace=wrap;html=1;fontSize=17;" vertex="1" parent="1">
          <mxGeometry x="393" y="307.5" width="80" height="50" as="geometry" />
        </mxCell>
        <mxCell id="4UY7N5YJQX02EFW7F6GH-7" style="edgeStyle=orthogonalEdgeStyle;rounded=0;orthogonalLoop=1;jettySize=auto;html=1;exitX=1;exitY=0.5;exitDx=0;exitDy=0;entryX=0;entryY=0.5;entryDx=0;entryDy=0;fontSize=17;" edge="1" parent="1" source="4UY7N5YJQX02EFW7F6GH-8" target="4UY7N5YJQX02EFW7F6GH-14">
          <mxGeometry relative="1" as="geometry" />
        </mxCell>
        <mxCell id="4UY7N5YJQX02EFW7F6GH-8" value="&lt;span style=&quot;font-family: &amp;quot;Times New Roman&amp;quot;;&quot;&gt;↑r1&lt;/span&gt;" style="ellipse;whiteSpace=wrap;html=1;fontSize=17;" vertex="1" parent="1">
          <mxGeometry x="533" y="307.5" width="80" height="50" as="geometry" />
        </mxCell>
        <mxCell id="4UY7N5YJQX02EFW7F6GH-9" value="" style="rounded=1;whiteSpace=wrap;html=1;glass=0;fontSize=17;strokeColor=#000000;opacity=20;" vertex="1" parent="1">
          <mxGeometry x="249" y="290" width="225" height="85" as="geometry" />
        </mxCell>
        <mxCell id="4UY7N5YJQX02EFW7F6GH-10" value="1" style="text;html=1;strokeColor=none;fillColor=none;align=center;verticalAlign=middle;whiteSpace=wrap;rounded=0;glass=0;fontSize=17;opacity=20;" vertex="1" parent="1">
          <mxGeometry x="119" y="357.5" width="60" height="30" as="geometry" />
        </mxCell>
        <mxCell id="4UY7N5YJQX02EFW7F6GH-11" value="2" style="text;html=1;strokeColor=none;fillColor=none;align=center;verticalAlign=middle;whiteSpace=wrap;rounded=0;glass=0;fontSize=17;opacity=20;" vertex="1" parent="1">
          <mxGeometry x="254" y="357.5" width="60" height="30" as="geometry" />
        </mxCell>
        <mxCell id="4UY7N5YJQX02EFW7F6GH-12" value="3" style="text;html=1;strokeColor=none;fillColor=none;align=center;verticalAlign=middle;whiteSpace=wrap;rounded=0;glass=0;fontSize=17;opacity=20;" vertex="1" parent="1">
          <mxGeometry x="403" y="357.5" width="60" height="30" as="geometry" />
        </mxCell>
        <mxCell id="4UY7N5YJQX02EFW7F6GH-13" style="edgeStyle=orthogonalEdgeStyle;rounded=0;orthogonalLoop=1;jettySize=auto;html=1;exitX=1;exitY=0.5;exitDx=0;exitDy=0;entryX=1;entryY=0.5;entryDx=0;entryDy=0;fontSize=17;" edge="1" parent="1" source="4UY7N5YJQX02EFW7F6GH-14" target="4UY7N5YJQX02EFW7F6GH-19">
          <mxGeometry relative="1" as="geometry" />
        </mxCell>
        <mxCell id="4UY7N5YJQX02EFW7F6GH-14" value="&lt;span style=&quot;font-family: &amp;quot;Times New Roman&amp;quot;;&quot;&gt;↑w0&lt;/span&gt;" style="ellipse;whiteSpace=wrap;html=1;fontSize=17;" vertex="1" parent="1">
          <mxGeometry x="669" y="307.5" width="80" height="50" as="geometry" />
        </mxCell>
        <mxCell id="4UY7N5YJQX02EFW7F6GH-15" value="" style="rounded=1;whiteSpace=wrap;html=1;glass=0;fontSize=17;strokeColor=#000000;opacity=20;" vertex="1" parent="1">
          <mxGeometry x="524" y="290" width="225" height="85" as="geometry" />
        </mxCell>
        <mxCell id="4UY7N5YJQX02EFW7F6GH-16" value="4" style="text;html=1;strokeColor=none;fillColor=none;align=center;verticalAlign=middle;whiteSpace=wrap;rounded=0;glass=0;fontSize=17;opacity=20;" vertex="1" parent="1">
          <mxGeometry x="543" y="357.5" width="60" height="30" as="geometry" />
        </mxCell>
        <mxCell id="4UY7N5YJQX02EFW7F6GH-17" value="5" style="text;html=1;strokeColor=none;fillColor=none;align=center;verticalAlign=middle;whiteSpace=wrap;rounded=0;glass=0;fontSize=17;opacity=20;" vertex="1" parent="1">
          <mxGeometry x="679" y="357.5" width="60" height="30" as="geometry" />
        </mxCell>
        <mxCell id="4UY7N5YJQX02EFW7F6GH-18" style="edgeStyle=orthogonalEdgeStyle;rounded=0;orthogonalLoop=1;jettySize=auto;html=1;exitX=0;exitY=0.5;exitDx=0;exitDy=0;fontSize=18;" edge="1" parent="1" source="4UY7N5YJQX02EFW7F6GH-19" target="4UY7N5YJQX02EFW7F6GH-28">
          <mxGeometry relative="1" as="geometry" />
        </mxCell>
        <mxCell id="4UY7N5YJQX02EFW7F6GH-19" value="&lt;span style=&quot;font-family: &amp;quot;Times New Roman&amp;quot;;&quot;&gt;&lt;font style=&quot;font-size: 18px;&quot;&gt;↕&lt;/font&gt;&lt;/span&gt;r0" style="ellipse;whiteSpace=wrap;html=1;fontSize=17;" vertex="1" parent="1">
          <mxGeometry x="669" y="417.5" width="80" height="50" as="geometry" />
        </mxCell>
        <mxCell id="4UY7N5YJQX02EFW7F6GH-20" style="edgeStyle=orthogonalEdgeStyle;rounded=0;orthogonalLoop=1;jettySize=auto;html=1;exitX=0;exitY=0.5;exitDx=0;exitDy=0;entryX=1;entryY=0.5;entryDx=0;entryDy=0;fontSize=18;" edge="1" parent="1" source="4UY7N5YJQX02EFW7F6GH-21" target="4UY7N5YJQX02EFW7F6GH-23">
          <mxGeometry relative="1" as="geometry" />
        </mxCell>
        <mxCell id="4UY7N5YJQX02EFW7F6GH-21" value="&lt;span style=&quot;font-family: &amp;quot;Times New Roman&amp;quot;; font-size: 22px;&quot;&gt;↓w1&lt;/span&gt;" style="ellipse;whiteSpace=wrap;html=1;fontSize=17;" vertex="1" parent="1">
          <mxGeometry x="399" y="417.5" width="80" height="50" as="geometry" />
        </mxCell>
        <mxCell id="4UY7N5YJQX02EFW7F6GH-22" style="edgeStyle=orthogonalEdgeStyle;rounded=0;orthogonalLoop=1;jettySize=auto;html=1;exitX=0;exitY=0.5;exitDx=0;exitDy=0;fontSize=18;" edge="1" parent="1" source="4UY7N5YJQX02EFW7F6GH-23" target="4UY7N5YJQX02EFW7F6GH-26">
          <mxGeometry relative="1" as="geometry" />
        </mxCell>
        <mxCell id="4UY7N5YJQX02EFW7F6GH-23" value="&lt;span style=&quot;font-family: &amp;quot;Times New Roman&amp;quot;; font-size: 22px;&quot;&gt;↓r1&lt;/span&gt;" style="ellipse;whiteSpace=wrap;html=1;fontSize=17;" vertex="1" parent="1">
          <mxGeometry x="254" y="417.5" width="80" height="50" as="geometry" />
        </mxCell>
        <mxCell id="4UY7N5YJQX02EFW7F6GH-24" value="&lt;span style=&quot;font-family: &amp;quot;Times New Roman&amp;quot;;&quot;&gt;&lt;font style=&quot;font-size: 18px;&quot;&gt;↕&lt;/font&gt;&lt;/span&gt;r0" style="ellipse;whiteSpace=wrap;html=1;fontSize=17;" vertex="1" parent="1">
          <mxGeometry x="119" y="517.5" width="80" height="50" as="geometry" />
        </mxCell>
        <mxCell id="4UY7N5YJQX02EFW7F6GH-25" style="edgeStyle=orthogonalEdgeStyle;rounded=0;orthogonalLoop=1;jettySize=auto;html=1;exitX=0;exitY=0.5;exitDx=0;exitDy=0;entryX=0;entryY=0.5;entryDx=0;entryDy=0;fontSize=18;" edge="1" parent="1" source="4UY7N5YJQX02EFW7F6GH-26" target="4UY7N5YJQX02EFW7F6GH-24">
          <mxGeometry relative="1" as="geometry" />
        </mxCell>
        <mxCell id="4UY7N5YJQX02EFW7F6GH-26" value="&lt;span style=&quot;font-family: &amp;quot;Times New Roman&amp;quot;; font-size: 22px;&quot;&gt;↓w0&lt;/span&gt;" style="ellipse;whiteSpace=wrap;html=1;fontSize=17;" vertex="1" parent="1">
          <mxGeometry x="119" y="417.5" width="80" height="50" as="geometry" />
        </mxCell>
        <mxCell id="4UY7N5YJQX02EFW7F6GH-27" style="edgeStyle=orthogonalEdgeStyle;rounded=0;orthogonalLoop=1;jettySize=auto;html=1;exitX=0;exitY=0.5;exitDx=0;exitDy=0;entryX=1;entryY=0.5;entryDx=0;entryDy=0;fontSize=18;" edge="1" parent="1" source="4UY7N5YJQX02EFW7F6GH-28" target="4UY7N5YJQX02EFW7F6GH-21">
          <mxGeometry relative="1" as="geometry" />
        </mxCell>
        <mxCell id="4UY7N5YJQX02EFW7F6GH-28" value="&lt;span style=&quot;font-family: &amp;quot;Times New Roman&amp;quot;; font-size: 22px;&quot;&gt;↓r0&lt;/span&gt;" style="ellipse;whiteSpace=wrap;html=1;fontSize=17;" vertex="1" parent="1">
          <mxGeometry x="539" y="417.5" width="80" height="50" as="geometry" />
        </mxCell>
        <mxCell id="4UY7N5YJQX02EFW7F6GH-29" value="" style="rounded=1;whiteSpace=wrap;html=1;glass=0;fontSize=17;strokeColor=#000000;opacity=20;" vertex="1" parent="1">
          <mxGeometry x="399" y="400" width="219" height="85" as="geometry" />
        </mxCell>
        <mxCell id="4UY7N5YJQX02EFW7F6GH-30" value="" style="endArrow=classic;html=1;rounded=0;fontSize=18;" edge="1" parent="1">
          <mxGeometry width="50" height="50" relative="1" as="geometry">
            <mxPoint x="59" y="327.5" as="sourcePoint" />
            <mxPoint x="109" y="327.5" as="targetPoint" />
          </mxGeometry>
        </mxCell>
        <mxCell id="4UY7N5YJQX02EFW7F6GH-31" value="" style="endArrow=classic;html=1;rounded=0;fontSize=18;" edge="1" parent="1" source="4UY7N5YJQX02EFW7F6GH-24">
          <mxGeometry width="50" height="50" relative="1" as="geometry">
            <mxPoint x="199" y="592.5" as="sourcePoint" />
            <mxPoint x="249" y="542.5" as="targetPoint" />
          </mxGeometry>
        </mxCell>
        <mxCell id="4UY7N5YJQX02EFW7F6GH-32" value="" style="rounded=1;whiteSpace=wrap;html=1;glass=0;fontSize=17;strokeColor=#000000;opacity=20;" vertex="1" parent="1">
          <mxGeometry x="119" y="400" width="219" height="85" as="geometry" />
        </mxCell>
        <mxCell id="4UY7N5YJQX02EFW7F6GH-33" value="6" style="text;html=1;strokeColor=none;fillColor=none;align=center;verticalAlign=middle;whiteSpace=wrap;rounded=0;glass=0;fontSize=18;opacity=20;" vertex="1" parent="1">
          <mxGeometry x="679" y="467.5" width="60" height="30" as="geometry" />
        </mxCell>
        <mxCell id="4UY7N5YJQX02EFW7F6GH-34" value="7" style="text;html=1;strokeColor=none;fillColor=none;align=center;verticalAlign=middle;whiteSpace=wrap;rounded=0;glass=0;fontSize=18;opacity=20;" vertex="1" parent="1">
          <mxGeometry x="554" y="467.5" width="60" height="30" as="geometry" />
        </mxCell>
        <mxCell id="4UY7N5YJQX02EFW7F6GH-35" value="8" style="text;html=1;strokeColor=none;fillColor=none;align=center;verticalAlign=middle;whiteSpace=wrap;rounded=0;glass=0;fontSize=18;opacity=20;" vertex="1" parent="1">
          <mxGeometry x="413" y="467.5" width="60" height="30" as="geometry" />
        </mxCell>
        <mxCell id="4UY7N5YJQX02EFW7F6GH-36" value="9" style="text;html=1;strokeColor=none;fillColor=none;align=center;verticalAlign=middle;whiteSpace=wrap;rounded=0;glass=0;fontSize=18;opacity=20;" vertex="1" parent="1">
          <mxGeometry x="273" y="467.5" width="60" height="30" as="geometry" />
        </mxCell>
        <mxCell id="4UY7N5YJQX02EFW7F6GH-37" value="10" style="text;html=1;strokeColor=none;fillColor=none;align=center;verticalAlign=middle;whiteSpace=wrap;rounded=0;glass=0;fontSize=18;opacity=20;" vertex="1" parent="1">
          <mxGeometry x="129" y="467.5" width="60" height="30" as="geometry" />
        </mxCell>
        <mxCell id="4UY7N5YJQX02EFW7F6GH-38" value="11" style="text;html=1;strokeColor=none;fillColor=none;align=center;verticalAlign=middle;whiteSpace=wrap;rounded=0;glass=0;fontSize=18;opacity=20;" vertex="1" parent="1">
          <mxGeometry x="129" y="567.5" width="60" height="30" as="geometry" />
        </mxCell>
      </root>
    </mxGraphModel>
  </diagram>
</mxfile>
